<mxfile host="app.diagrams.net" modified="2021-08-29T11:23:36.185Z" agent="5.0 (Macintosh; Intel Mac OS X 10_15_7) AppleWebKit/537.36 (KHTML, like Gecko) Chrome/81.0.4044.138 Safari/537.36" etag="XFf8c27kr3aUADM-Nn6j" version="15.0.3" type="github">
  <diagram id="41TENCk-us3p-DswaN3T" name="Page-1">
    <mxGraphModel dx="946" dy="543" grid="1" gridSize="10" guides="1" tooltips="1" connect="1" arrows="1" fold="1" page="1" pageScale="1" pageWidth="850" pageHeight="1100" math="0" shadow="0">
      <root>
        <mxCell id="0" />
        <mxCell id="1" parent="0" />
        <mxCell id="OCGcXutntZykLMBoqyvL-28" value="&lt;font style=&quot;font-size: 28px&quot;&gt;...&lt;/font&gt;" style="text;html=1;strokeColor=none;fillColor=none;align=center;verticalAlign=middle;whiteSpace=wrap;rounded=0;" parent="1" vertex="1">
          <mxGeometry x="140" y="510" width="40" height="20" as="geometry" />
        </mxCell>
        <mxCell id="Z6vbrmiXovS8cvgwPFea-2" value="" style="ellipse;whiteSpace=wrap;html=1;aspect=fixed;fillColor=#e51400;fontColor=#ffffff;strokeColor=#E51400;" vertex="1" parent="1">
          <mxGeometry x="240" y="600" width="50" height="50" as="geometry" />
        </mxCell>
        <mxCell id="Z6vbrmiXovS8cvgwPFea-3" value="&lt;font style=&quot;font-size: 28px&quot;&gt;0&lt;/font&gt;" style="ellipse;whiteSpace=wrap;html=1;aspect=fixed;fillColor=#e3c800;fontColor=#000000;strokeColor=#E3C800;" vertex="1" parent="1">
          <mxGeometry x="190" y="550" width="50" height="50" as="geometry" />
        </mxCell>
        <mxCell id="Z6vbrmiXovS8cvgwPFea-4" value="&lt;font style=&quot;font-size: 28px&quot;&gt;0&lt;/font&gt;" style="ellipse;whiteSpace=wrap;html=1;aspect=fixed;fillColor=#e3c800;fontColor=#000000;strokeColor=#E3C800;" vertex="1" parent="1">
          <mxGeometry x="240" y="670" width="50" height="50" as="geometry" />
        </mxCell>
        <mxCell id="Z6vbrmiXovS8cvgwPFea-5" value="&lt;font style=&quot;font-size: 28px&quot;&gt;0&lt;/font&gt;" style="ellipse;whiteSpace=wrap;html=1;aspect=fixed;fillColor=#e3c800;fontColor=#000000;strokeColor=#E3C800;" vertex="1" parent="1">
          <mxGeometry x="310" y="600" width="50" height="50" as="geometry" />
        </mxCell>
        <mxCell id="Z6vbrmiXovS8cvgwPFea-6" style="rounded=0;orthogonalLoop=1;jettySize=auto;html=1;exitX=0;exitY=0;exitDx=0;exitDy=0;endArrow=none;endFill=0;strokeWidth=2;entryX=1;entryY=1;entryDx=0;entryDy=0;" edge="1" parent="1" source="Z6vbrmiXovS8cvgwPFea-2" target="Z6vbrmiXovS8cvgwPFea-3">
          <mxGeometry relative="1" as="geometry">
            <mxPoint x="281.7157287525381" y="281.7157287525381" as="sourcePoint" />
            <mxPoint x="258.2842712474619" y="238.2842712474619" as="targetPoint" />
          </mxGeometry>
        </mxCell>
        <mxCell id="Z6vbrmiXovS8cvgwPFea-7" style="rounded=0;orthogonalLoop=1;jettySize=auto;html=1;exitX=0.5;exitY=0;exitDx=0;exitDy=0;endArrow=none;endFill=0;strokeWidth=2;entryX=0.5;entryY=1;entryDx=0;entryDy=0;" edge="1" parent="1" source="Z6vbrmiXovS8cvgwPFea-4" target="Z6vbrmiXovS8cvgwPFea-2">
          <mxGeometry relative="1" as="geometry">
            <mxPoint x="257.3223304703363" y="617.3223304703363" as="sourcePoint" />
            <mxPoint x="242.67766952966372" y="602.6776695296637" as="targetPoint" />
          </mxGeometry>
        </mxCell>
        <mxCell id="Z6vbrmiXovS8cvgwPFea-8" style="rounded=0;orthogonalLoop=1;jettySize=auto;html=1;exitX=0;exitY=0.5;exitDx=0;exitDy=0;endArrow=none;endFill=0;strokeWidth=2;entryX=1;entryY=0.5;entryDx=0;entryDy=0;" edge="1" parent="1" source="Z6vbrmiXovS8cvgwPFea-5" target="Z6vbrmiXovS8cvgwPFea-2">
          <mxGeometry relative="1" as="geometry">
            <mxPoint x="257.3223304703363" y="617.3223304703363" as="sourcePoint" />
            <mxPoint x="242.67766952966372" y="602.6776695296637" as="targetPoint" />
          </mxGeometry>
        </mxCell>
        <mxCell id="Z6vbrmiXovS8cvgwPFea-9" value="&lt;font style=&quot;font-size: 28px&quot;&gt;1&lt;/font&gt;" style="ellipse;whiteSpace=wrap;html=1;aspect=fixed;fillColor=#e3c800;fontColor=#000000;strokeColor=#E3C800;" vertex="1" parent="1">
          <mxGeometry x="190" y="480" width="50" height="50" as="geometry" />
        </mxCell>
        <mxCell id="Z6vbrmiXovS8cvgwPFea-10" style="rounded=0;orthogonalLoop=1;jettySize=auto;html=1;exitX=0.5;exitY=0;exitDx=0;exitDy=0;endArrow=none;endFill=0;strokeWidth=2;entryX=0.5;entryY=1;entryDx=0;entryDy=0;" edge="1" parent="1" source="Z6vbrmiXovS8cvgwPFea-3" target="Z6vbrmiXovS8cvgwPFea-9">
          <mxGeometry relative="1" as="geometry">
            <mxPoint x="257.3223304703363" y="617.3223304703363" as="sourcePoint" />
            <mxPoint x="242.67766952966372" y="602.6776695296637" as="targetPoint" />
          </mxGeometry>
        </mxCell>
        <mxCell id="Z6vbrmiXovS8cvgwPFea-12" value="&lt;font style=&quot;font-size: 28px&quot;&gt;1&lt;/font&gt;" style="ellipse;whiteSpace=wrap;html=1;aspect=fixed;fillColor=#e3c800;fontColor=#000000;strokeColor=#E3C800;" vertex="1" parent="1">
          <mxGeometry x="120" y="550" width="50" height="50" as="geometry" />
        </mxCell>
        <mxCell id="Z6vbrmiXovS8cvgwPFea-13" style="rounded=0;orthogonalLoop=1;jettySize=auto;html=1;exitX=0;exitY=0.5;exitDx=0;exitDy=0;endArrow=none;endFill=0;strokeWidth=2;entryX=1;entryY=0.5;entryDx=0;entryDy=0;" edge="1" parent="1" source="Z6vbrmiXovS8cvgwPFea-3" target="Z6vbrmiXovS8cvgwPFea-12">
          <mxGeometry relative="1" as="geometry">
            <mxPoint x="225" y="560" as="sourcePoint" />
            <mxPoint x="225" y="540" as="targetPoint" />
          </mxGeometry>
        </mxCell>
        <mxCell id="Z6vbrmiXovS8cvgwPFea-14" style="rounded=0;orthogonalLoop=1;jettySize=auto;html=1;exitX=0;exitY=0;exitDx=0;exitDy=0;endArrow=none;endFill=0;strokeWidth=2;" edge="1" parent="1" source="Z6vbrmiXovS8cvgwPFea-3">
          <mxGeometry relative="1" as="geometry">
            <mxPoint x="257.3223304703363" y="617.3223304703363" as="sourcePoint" />
            <mxPoint x="180" y="540" as="targetPoint" />
          </mxGeometry>
        </mxCell>
        <mxCell id="Z6vbrmiXovS8cvgwPFea-15" value="&lt;font style=&quot;font-size: 28px&quot;&gt;-2&lt;/font&gt;" style="ellipse;whiteSpace=wrap;html=1;aspect=fixed;fillColor=#e3c800;fontColor=#000000;strokeColor=#E3C800;" vertex="1" parent="1">
          <mxGeometry x="190" y="720" width="50" height="50" as="geometry" />
        </mxCell>
        <mxCell id="Z6vbrmiXovS8cvgwPFea-16" value="&lt;font style=&quot;font-size: 28px&quot;&gt;-2&lt;/font&gt;" style="ellipse;whiteSpace=wrap;html=1;aspect=fixed;fillColor=#e3c800;fontColor=#000000;strokeColor=#E3C800;" vertex="1" parent="1">
          <mxGeometry x="150" y="630" width="50" height="50" as="geometry" />
        </mxCell>
        <mxCell id="Z6vbrmiXovS8cvgwPFea-17" style="rounded=0;orthogonalLoop=1;jettySize=auto;html=1;exitX=0;exitY=0;exitDx=0;exitDy=0;endArrow=none;endFill=0;strokeWidth=2;entryX=1;entryY=0.5;entryDx=0;entryDy=0;" edge="1" parent="1" source="Z6vbrmiXovS8cvgwPFea-4" target="Z6vbrmiXovS8cvgwPFea-16">
          <mxGeometry relative="1" as="geometry">
            <mxPoint x="200" y="585" as="sourcePoint" />
            <mxPoint x="180" y="585" as="targetPoint" />
          </mxGeometry>
        </mxCell>
        <mxCell id="Z6vbrmiXovS8cvgwPFea-18" style="rounded=0;orthogonalLoop=1;jettySize=auto;html=1;exitX=0;exitY=1;exitDx=0;exitDy=0;endArrow=none;endFill=0;strokeWidth=2;entryX=1;entryY=0;entryDx=0;entryDy=0;" edge="1" parent="1" source="Z6vbrmiXovS8cvgwPFea-4" target="Z6vbrmiXovS8cvgwPFea-15">
          <mxGeometry relative="1" as="geometry">
            <mxPoint x="257.3223304703363" y="687.3223304703363" as="sourcePoint" />
            <mxPoint x="210" y="665" as="targetPoint" />
          </mxGeometry>
        </mxCell>
        <mxCell id="Z6vbrmiXovS8cvgwPFea-19" value="&lt;font style=&quot;font-size: 28px&quot;&gt;...&lt;/font&gt;" style="text;html=1;strokeColor=none;fillColor=none;align=center;verticalAlign=middle;whiteSpace=wrap;rounded=0;" vertex="1" parent="1">
          <mxGeometry x="155" y="680" width="40" height="20" as="geometry" />
        </mxCell>
        <mxCell id="Z6vbrmiXovS8cvgwPFea-20" style="rounded=0;orthogonalLoop=1;jettySize=auto;html=1;exitX=0;exitY=0.5;exitDx=0;exitDy=0;endArrow=none;endFill=0;strokeWidth=2;" edge="1" parent="1" source="Z6vbrmiXovS8cvgwPFea-4">
          <mxGeometry relative="1" as="geometry">
            <mxPoint x="200" y="585" as="sourcePoint" />
            <mxPoint x="200" y="695" as="targetPoint" />
          </mxGeometry>
        </mxCell>
        <mxCell id="Z6vbrmiXovS8cvgwPFea-21" value="&lt;font style=&quot;font-size: 28px&quot;&gt;...&lt;/font&gt;" style="text;html=1;strokeColor=none;fillColor=none;align=center;verticalAlign=middle;whiteSpace=wrap;rounded=0;" vertex="1" parent="1">
          <mxGeometry x="290" y="550" width="40" height="30" as="geometry" />
        </mxCell>
        <mxCell id="Z6vbrmiXovS8cvgwPFea-22" style="rounded=0;orthogonalLoop=1;jettySize=auto;html=1;endArrow=none;endFill=0;strokeWidth=2;entryX=1;entryY=0;entryDx=0;entryDy=0;" edge="1" parent="1" target="Z6vbrmiXovS8cvgwPFea-2">
          <mxGeometry relative="1" as="geometry">
            <mxPoint x="300" y="590" as="sourcePoint" />
            <mxPoint x="300" y="635" as="targetPoint" />
          </mxGeometry>
        </mxCell>
        <mxCell id="Z6vbrmiXovS8cvgwPFea-23" value="&lt;font style=&quot;font-size: 28px&quot;&gt;5&lt;/font&gt;" style="ellipse;whiteSpace=wrap;html=1;aspect=fixed;fillColor=#e3c800;fontColor=#000000;strokeColor=#E3C800;" vertex="1" parent="1">
          <mxGeometry x="310" y="670" width="50" height="50" as="geometry" />
        </mxCell>
        <mxCell id="Z6vbrmiXovS8cvgwPFea-24" value="&lt;font style=&quot;font-size: 28px&quot;&gt;5&lt;/font&gt;" style="ellipse;whiteSpace=wrap;html=1;aspect=fixed;fillColor=#e3c800;fontColor=#000000;strokeColor=#E3C800;" vertex="1" parent="1">
          <mxGeometry x="380" y="600" width="50" height="50" as="geometry" />
        </mxCell>
        <mxCell id="Z6vbrmiXovS8cvgwPFea-25" style="rounded=0;orthogonalLoop=1;jettySize=auto;html=1;exitX=0;exitY=0.5;exitDx=0;exitDy=0;endArrow=none;endFill=0;strokeWidth=2;entryX=1;entryY=0.5;entryDx=0;entryDy=0;" edge="1" parent="1" source="Z6vbrmiXovS8cvgwPFea-24" target="Z6vbrmiXovS8cvgwPFea-5">
          <mxGeometry relative="1" as="geometry">
            <mxPoint x="320" y="635" as="sourcePoint" />
            <mxPoint x="360" y="625" as="targetPoint" />
          </mxGeometry>
        </mxCell>
        <mxCell id="Z6vbrmiXovS8cvgwPFea-26" style="rounded=0;orthogonalLoop=1;jettySize=auto;html=1;exitX=0.5;exitY=0;exitDx=0;exitDy=0;endArrow=none;endFill=0;strokeWidth=2;entryX=0.5;entryY=1;entryDx=0;entryDy=0;" edge="1" parent="1" source="Z6vbrmiXovS8cvgwPFea-23" target="Z6vbrmiXovS8cvgwPFea-5">
          <mxGeometry relative="1" as="geometry">
            <mxPoint x="275" y="680" as="sourcePoint" />
            <mxPoint x="275" y="660" as="targetPoint" />
          </mxGeometry>
        </mxCell>
        <mxCell id="Z6vbrmiXovS8cvgwPFea-27" value="&lt;font style=&quot;font-size: 28px&quot;&gt;...&lt;/font&gt;" style="text;html=1;strokeColor=none;fillColor=none;align=center;verticalAlign=middle;whiteSpace=wrap;rounded=0;" vertex="1" parent="1">
          <mxGeometry x="380" y="660" width="40" height="30" as="geometry" />
        </mxCell>
        <mxCell id="Z6vbrmiXovS8cvgwPFea-28" style="rounded=0;orthogonalLoop=1;jettySize=auto;html=1;exitX=0;exitY=0.5;exitDx=0;exitDy=0;endArrow=none;endFill=0;strokeWidth=2;entryX=1;entryY=1;entryDx=0;entryDy=0;" edge="1" parent="1" source="Z6vbrmiXovS8cvgwPFea-27" target="Z6vbrmiXovS8cvgwPFea-5">
          <mxGeometry relative="1" as="geometry">
            <mxPoint x="257.3223304703363" y="617.3223304703363" as="sourcePoint" />
            <mxPoint x="242.67766952966372" y="602.6776695296637" as="targetPoint" />
          </mxGeometry>
        </mxCell>
        <mxCell id="Z6vbrmiXovS8cvgwPFea-29" value="&lt;font style=&quot;font-size: 28px&quot;&gt;...&lt;/font&gt;" style="text;html=1;strokeColor=none;fillColor=none;align=center;verticalAlign=middle;whiteSpace=wrap;rounded=0;" vertex="1" parent="1">
          <mxGeometry x="500" y="510" width="40" height="20" as="geometry" />
        </mxCell>
        <mxCell id="Z6vbrmiXovS8cvgwPFea-30" value="" style="ellipse;whiteSpace=wrap;html=1;aspect=fixed;fillColor=#e51400;fontColor=#ffffff;strokeColor=#E51400;" vertex="1" parent="1">
          <mxGeometry x="600" y="600" width="50" height="50" as="geometry" />
        </mxCell>
        <mxCell id="Z6vbrmiXovS8cvgwPFea-31" value="&lt;font style=&quot;font-size: 28px&quot;&gt;0&lt;/font&gt;" style="ellipse;whiteSpace=wrap;html=1;aspect=fixed;fillColor=#e3c800;fontColor=#000000;strokeColor=#E3C800;" vertex="1" parent="1">
          <mxGeometry x="550" y="550" width="50" height="50" as="geometry" />
        </mxCell>
        <mxCell id="Z6vbrmiXovS8cvgwPFea-32" value="&lt;font style=&quot;font-size: 28px&quot;&gt;0&lt;/font&gt;" style="ellipse;whiteSpace=wrap;html=1;aspect=fixed;fillColor=#e3c800;fontColor=#000000;strokeColor=#E3C800;" vertex="1" parent="1">
          <mxGeometry x="600" y="670" width="50" height="50" as="geometry" />
        </mxCell>
        <mxCell id="Z6vbrmiXovS8cvgwPFea-33" value="&lt;font style=&quot;font-size: 28px&quot;&gt;0&lt;/font&gt;" style="ellipse;whiteSpace=wrap;html=1;aspect=fixed;fillColor=#e3c800;fontColor=#000000;strokeColor=#E3C800;" vertex="1" parent="1">
          <mxGeometry x="670" y="600" width="50" height="50" as="geometry" />
        </mxCell>
        <mxCell id="Z6vbrmiXovS8cvgwPFea-34" style="rounded=0;orthogonalLoop=1;jettySize=auto;html=1;exitX=0;exitY=0;exitDx=0;exitDy=0;endArrow=none;endFill=0;strokeWidth=2;entryX=1;entryY=1;entryDx=0;entryDy=0;" edge="1" parent="1" source="Z6vbrmiXovS8cvgwPFea-30" target="Z6vbrmiXovS8cvgwPFea-31">
          <mxGeometry relative="1" as="geometry">
            <mxPoint x="641.7157287525381" y="281.7157287525381" as="sourcePoint" />
            <mxPoint x="618.2842712474619" y="238.2842712474619" as="targetPoint" />
          </mxGeometry>
        </mxCell>
        <mxCell id="Z6vbrmiXovS8cvgwPFea-35" style="rounded=0;orthogonalLoop=1;jettySize=auto;html=1;exitX=0.5;exitY=0;exitDx=0;exitDy=0;endArrow=none;endFill=0;strokeWidth=2;entryX=0.5;entryY=1;entryDx=0;entryDy=0;" edge="1" parent="1" source="Z6vbrmiXovS8cvgwPFea-32" target="Z6vbrmiXovS8cvgwPFea-30">
          <mxGeometry relative="1" as="geometry">
            <mxPoint x="617.3223304703363" y="617.3223304703363" as="sourcePoint" />
            <mxPoint x="602.6776695296637" y="602.6776695296637" as="targetPoint" />
          </mxGeometry>
        </mxCell>
        <mxCell id="Z6vbrmiXovS8cvgwPFea-36" style="rounded=0;orthogonalLoop=1;jettySize=auto;html=1;exitX=0;exitY=0.5;exitDx=0;exitDy=0;endArrow=none;endFill=0;strokeWidth=2;entryX=1;entryY=0.5;entryDx=0;entryDy=0;" edge="1" parent="1" source="Z6vbrmiXovS8cvgwPFea-33" target="Z6vbrmiXovS8cvgwPFea-30">
          <mxGeometry relative="1" as="geometry">
            <mxPoint x="617.3223304703363" y="617.3223304703363" as="sourcePoint" />
            <mxPoint x="602.6776695296637" y="602.6776695296637" as="targetPoint" />
          </mxGeometry>
        </mxCell>
        <mxCell id="Z6vbrmiXovS8cvgwPFea-37" value="&lt;font style=&quot;font-size: 28px&quot;&gt;1&lt;/font&gt;" style="ellipse;whiteSpace=wrap;html=1;aspect=fixed;fillColor=#e3c800;fontColor=#000000;strokeColor=#E3C800;" vertex="1" parent="1">
          <mxGeometry x="550" y="480" width="50" height="50" as="geometry" />
        </mxCell>
        <mxCell id="Z6vbrmiXovS8cvgwPFea-38" style="rounded=0;orthogonalLoop=1;jettySize=auto;html=1;exitX=0.5;exitY=0;exitDx=0;exitDy=0;endArrow=none;endFill=0;strokeWidth=2;entryX=0.5;entryY=1;entryDx=0;entryDy=0;" edge="1" parent="1" source="Z6vbrmiXovS8cvgwPFea-31" target="Z6vbrmiXovS8cvgwPFea-37">
          <mxGeometry relative="1" as="geometry">
            <mxPoint x="617.3223304703363" y="617.3223304703363" as="sourcePoint" />
            <mxPoint x="602.6776695296637" y="602.6776695296637" as="targetPoint" />
          </mxGeometry>
        </mxCell>
        <mxCell id="Z6vbrmiXovS8cvgwPFea-39" value="&lt;font style=&quot;font-size: 28px&quot;&gt;5&lt;/font&gt;" style="ellipse;whiteSpace=wrap;html=1;aspect=fixed;fillColor=#e3c800;fontColor=#000000;strokeColor=#E3C800;" vertex="1" parent="1">
          <mxGeometry x="480" y="550" width="50" height="50" as="geometry" />
        </mxCell>
        <mxCell id="Z6vbrmiXovS8cvgwPFea-40" style="rounded=0;orthogonalLoop=1;jettySize=auto;html=1;exitX=0;exitY=0.5;exitDx=0;exitDy=0;endArrow=none;endFill=0;strokeWidth=2;entryX=1;entryY=0.5;entryDx=0;entryDy=0;" edge="1" parent="1" source="Z6vbrmiXovS8cvgwPFea-31" target="Z6vbrmiXovS8cvgwPFea-39">
          <mxGeometry relative="1" as="geometry">
            <mxPoint x="585" y="560" as="sourcePoint" />
            <mxPoint x="585" y="540" as="targetPoint" />
          </mxGeometry>
        </mxCell>
        <mxCell id="Z6vbrmiXovS8cvgwPFea-41" style="rounded=0;orthogonalLoop=1;jettySize=auto;html=1;exitX=0;exitY=0;exitDx=0;exitDy=0;endArrow=none;endFill=0;strokeWidth=2;" edge="1" parent="1" source="Z6vbrmiXovS8cvgwPFea-31">
          <mxGeometry relative="1" as="geometry">
            <mxPoint x="617.3223304703363" y="617.3223304703363" as="sourcePoint" />
            <mxPoint x="540" y="540" as="targetPoint" />
          </mxGeometry>
        </mxCell>
        <mxCell id="Z6vbrmiXovS8cvgwPFea-42" value="&lt;font style=&quot;font-size: 28px&quot;&gt;1&lt;/font&gt;" style="ellipse;whiteSpace=wrap;html=1;aspect=fixed;fillColor=#e3c800;fontColor=#000000;strokeColor=#E3C800;" vertex="1" parent="1">
          <mxGeometry x="550" y="720" width="50" height="50" as="geometry" />
        </mxCell>
        <mxCell id="Z6vbrmiXovS8cvgwPFea-43" value="&lt;font style=&quot;font-size: 28px&quot;&gt;5&lt;/font&gt;" style="ellipse;whiteSpace=wrap;html=1;aspect=fixed;fillColor=#e3c800;fontColor=#000000;strokeColor=#E3C800;" vertex="1" parent="1">
          <mxGeometry x="510" y="630" width="50" height="50" as="geometry" />
        </mxCell>
        <mxCell id="Z6vbrmiXovS8cvgwPFea-44" style="rounded=0;orthogonalLoop=1;jettySize=auto;html=1;exitX=0;exitY=0;exitDx=0;exitDy=0;endArrow=none;endFill=0;strokeWidth=2;entryX=1;entryY=0.5;entryDx=0;entryDy=0;" edge="1" parent="1" source="Z6vbrmiXovS8cvgwPFea-32" target="Z6vbrmiXovS8cvgwPFea-43">
          <mxGeometry relative="1" as="geometry">
            <mxPoint x="560" y="585" as="sourcePoint" />
            <mxPoint x="540" y="585" as="targetPoint" />
          </mxGeometry>
        </mxCell>
        <mxCell id="Z6vbrmiXovS8cvgwPFea-45" style="rounded=0;orthogonalLoop=1;jettySize=auto;html=1;exitX=0;exitY=1;exitDx=0;exitDy=0;endArrow=none;endFill=0;strokeWidth=2;entryX=1;entryY=0;entryDx=0;entryDy=0;" edge="1" parent="1" source="Z6vbrmiXovS8cvgwPFea-32" target="Z6vbrmiXovS8cvgwPFea-42">
          <mxGeometry relative="1" as="geometry">
            <mxPoint x="617.3223304703363" y="687.3223304703363" as="sourcePoint" />
            <mxPoint x="570" y="665" as="targetPoint" />
          </mxGeometry>
        </mxCell>
        <mxCell id="Z6vbrmiXovS8cvgwPFea-46" value="&lt;font style=&quot;font-size: 28px&quot;&gt;...&lt;/font&gt;" style="text;html=1;strokeColor=none;fillColor=none;align=center;verticalAlign=middle;whiteSpace=wrap;rounded=0;" vertex="1" parent="1">
          <mxGeometry x="515" y="680" width="40" height="20" as="geometry" />
        </mxCell>
        <mxCell id="Z6vbrmiXovS8cvgwPFea-47" style="rounded=0;orthogonalLoop=1;jettySize=auto;html=1;exitX=0;exitY=0.5;exitDx=0;exitDy=0;endArrow=none;endFill=0;strokeWidth=2;" edge="1" parent="1" source="Z6vbrmiXovS8cvgwPFea-32">
          <mxGeometry relative="1" as="geometry">
            <mxPoint x="560" y="585" as="sourcePoint" />
            <mxPoint x="560" y="695" as="targetPoint" />
          </mxGeometry>
        </mxCell>
        <mxCell id="Z6vbrmiXovS8cvgwPFea-48" value="&lt;font style=&quot;font-size: 28px&quot;&gt;...&lt;/font&gt;" style="text;html=1;strokeColor=none;fillColor=none;align=center;verticalAlign=middle;whiteSpace=wrap;rounded=0;" vertex="1" parent="1">
          <mxGeometry x="650" y="550" width="40" height="30" as="geometry" />
        </mxCell>
        <mxCell id="Z6vbrmiXovS8cvgwPFea-49" style="rounded=0;orthogonalLoop=1;jettySize=auto;html=1;endArrow=none;endFill=0;strokeWidth=2;entryX=1;entryY=0;entryDx=0;entryDy=0;" edge="1" parent="1" target="Z6vbrmiXovS8cvgwPFea-30">
          <mxGeometry relative="1" as="geometry">
            <mxPoint x="660" y="590" as="sourcePoint" />
            <mxPoint x="660" y="635" as="targetPoint" />
          </mxGeometry>
        </mxCell>
        <mxCell id="Z6vbrmiXovS8cvgwPFea-50" value="&lt;font style=&quot;font-size: 28px&quot;&gt;5&lt;/font&gt;" style="ellipse;whiteSpace=wrap;html=1;aspect=fixed;fillColor=#e3c800;fontColor=#000000;strokeColor=#E3C800;" vertex="1" parent="1">
          <mxGeometry x="670" y="670" width="50" height="50" as="geometry" />
        </mxCell>
        <mxCell id="Z6vbrmiXovS8cvgwPFea-51" value="&lt;font style=&quot;font-size: 28px&quot;&gt;1&lt;/font&gt;" style="ellipse;whiteSpace=wrap;html=1;aspect=fixed;fillColor=#e3c800;fontColor=#000000;strokeColor=#E3C800;" vertex="1" parent="1">
          <mxGeometry x="740" y="600" width="50" height="50" as="geometry" />
        </mxCell>
        <mxCell id="Z6vbrmiXovS8cvgwPFea-52" style="rounded=0;orthogonalLoop=1;jettySize=auto;html=1;exitX=0;exitY=0.5;exitDx=0;exitDy=0;endArrow=none;endFill=0;strokeWidth=2;entryX=1;entryY=0.5;entryDx=0;entryDy=0;" edge="1" parent="1" source="Z6vbrmiXovS8cvgwPFea-51" target="Z6vbrmiXovS8cvgwPFea-33">
          <mxGeometry relative="1" as="geometry">
            <mxPoint x="680" y="635" as="sourcePoint" />
            <mxPoint x="720" y="625" as="targetPoint" />
          </mxGeometry>
        </mxCell>
        <mxCell id="Z6vbrmiXovS8cvgwPFea-53" style="rounded=0;orthogonalLoop=1;jettySize=auto;html=1;exitX=0.5;exitY=0;exitDx=0;exitDy=0;endArrow=none;endFill=0;strokeWidth=2;entryX=0.5;entryY=1;entryDx=0;entryDy=0;" edge="1" parent="1" source="Z6vbrmiXovS8cvgwPFea-50" target="Z6vbrmiXovS8cvgwPFea-33">
          <mxGeometry relative="1" as="geometry">
            <mxPoint x="635" y="680" as="sourcePoint" />
            <mxPoint x="635" y="660" as="targetPoint" />
          </mxGeometry>
        </mxCell>
        <mxCell id="Z6vbrmiXovS8cvgwPFea-54" value="&lt;font style=&quot;font-size: 28px&quot;&gt;...&lt;/font&gt;" style="text;html=1;strokeColor=none;fillColor=none;align=center;verticalAlign=middle;whiteSpace=wrap;rounded=0;" vertex="1" parent="1">
          <mxGeometry x="740" y="660" width="40" height="30" as="geometry" />
        </mxCell>
        <mxCell id="Z6vbrmiXovS8cvgwPFea-55" style="rounded=0;orthogonalLoop=1;jettySize=auto;html=1;exitX=0;exitY=0.5;exitDx=0;exitDy=0;endArrow=none;endFill=0;strokeWidth=2;entryX=1;entryY=1;entryDx=0;entryDy=0;" edge="1" parent="1" source="Z6vbrmiXovS8cvgwPFea-54" target="Z6vbrmiXovS8cvgwPFea-33">
          <mxGeometry relative="1" as="geometry">
            <mxPoint x="617.3223304703363" y="617.3223304703363" as="sourcePoint" />
            <mxPoint x="602.6776695296637" y="602.6776695296637" as="targetPoint" />
          </mxGeometry>
        </mxCell>
        <mxCell id="Z6vbrmiXovS8cvgwPFea-56" value="&lt;font style=&quot;font-size: 28px&quot;&gt;-2&lt;/font&gt;" style="ellipse;whiteSpace=wrap;html=1;aspect=fixed;fillColor=#e3c800;fontColor=#000000;strokeColor=#E3C800;" vertex="1" parent="1">
          <mxGeometry x="620" y="480" width="50" height="50" as="geometry" />
        </mxCell>
        <mxCell id="Z6vbrmiXovS8cvgwPFea-57" style="rounded=0;orthogonalLoop=1;jettySize=auto;html=1;exitX=1;exitY=0;exitDx=0;exitDy=0;endArrow=none;endFill=0;strokeWidth=2;entryX=0;entryY=1;entryDx=0;entryDy=0;" edge="1" parent="1" source="Z6vbrmiXovS8cvgwPFea-31" target="Z6vbrmiXovS8cvgwPFea-56">
          <mxGeometry relative="1" as="geometry">
            <mxPoint x="567.3223304703363" y="567.3223304703363" as="sourcePoint" />
            <mxPoint x="550" y="550" as="targetPoint" />
          </mxGeometry>
        </mxCell>
        <mxCell id="Z6vbrmiXovS8cvgwPFea-58" value="&lt;font style=&quot;font-size: 28px&quot;&gt;-2&lt;/font&gt;" style="ellipse;whiteSpace=wrap;html=1;aspect=fixed;fillColor=#e3c800;fontColor=#000000;strokeColor=#E3C800;" vertex="1" parent="1">
          <mxGeometry x="650" y="720" width="50" height="50" as="geometry" />
        </mxCell>
        <mxCell id="Z6vbrmiXovS8cvgwPFea-59" style="rounded=0;orthogonalLoop=1;jettySize=auto;html=1;exitX=1;exitY=1;exitDx=0;exitDy=0;endArrow=none;endFill=0;strokeWidth=2;entryX=0;entryY=0;entryDx=0;entryDy=0;" edge="1" parent="1" source="Z6vbrmiXovS8cvgwPFea-32" target="Z6vbrmiXovS8cvgwPFea-58">
          <mxGeometry relative="1" as="geometry">
            <mxPoint x="617.3223304703363" y="722.6776695296637" as="sourcePoint" />
            <mxPoint x="602.6776695296637" y="737.3223304703363" as="targetPoint" />
          </mxGeometry>
        </mxCell>
        <mxCell id="Z6vbrmiXovS8cvgwPFea-60" value="&lt;font style=&quot;font-size: 28px&quot;&gt;-2&lt;/font&gt;" style="ellipse;whiteSpace=wrap;html=1;aspect=fixed;fillColor=#e3c800;fontColor=#000000;strokeColor=#E3C800;" vertex="1" parent="1">
          <mxGeometry x="730" y="530" width="50" height="50" as="geometry" />
        </mxCell>
        <mxCell id="Z6vbrmiXovS8cvgwPFea-61" style="rounded=0;orthogonalLoop=1;jettySize=auto;html=1;endArrow=none;endFill=0;strokeWidth=2;entryX=1;entryY=0;entryDx=0;entryDy=0;exitX=0;exitY=1;exitDx=0;exitDy=0;" edge="1" parent="1" source="Z6vbrmiXovS8cvgwPFea-60" target="Z6vbrmiXovS8cvgwPFea-33">
          <mxGeometry relative="1" as="geometry">
            <mxPoint x="670" y="600" as="sourcePoint" />
            <mxPoint x="652.6776695296637" y="617.3223304703363" as="targetPoint" />
          </mxGeometry>
        </mxCell>
        <mxCell id="Z6vbrmiXovS8cvgwPFea-62" value="&lt;font style=&quot;font-size: 28px&quot;&gt;1&lt;/font&gt;" style="ellipse;whiteSpace=wrap;html=1;aspect=fixed;fillColor=#e3c800;fontColor=#000000;strokeColor=#E3C800;" vertex="1" parent="1">
          <mxGeometry x="260" y="480" width="50" height="50" as="geometry" />
        </mxCell>
        <mxCell id="Z6vbrmiXovS8cvgwPFea-63" style="rounded=0;orthogonalLoop=1;jettySize=auto;html=1;exitX=1;exitY=0;exitDx=0;exitDy=0;endArrow=none;endFill=0;strokeWidth=2;entryX=0;entryY=1;entryDx=0;entryDy=0;" edge="1" parent="1" source="Z6vbrmiXovS8cvgwPFea-3" target="Z6vbrmiXovS8cvgwPFea-62">
          <mxGeometry relative="1" as="geometry">
            <mxPoint x="622.6776695296637" y="577.3223304703363" as="sourcePoint" />
            <mxPoint x="657.3223304703363" y="542.6776695296637" as="targetPoint" />
          </mxGeometry>
        </mxCell>
        <mxCell id="Z6vbrmiXovS8cvgwPFea-65" value="&lt;font style=&quot;font-size: 28px&quot;&gt;-2&lt;/font&gt;" style="ellipse;whiteSpace=wrap;html=1;aspect=fixed;fillColor=#e3c800;fontColor=#000000;strokeColor=#E3C800;" vertex="1" parent="1">
          <mxGeometry x="290" y="720" width="50" height="50" as="geometry" />
        </mxCell>
        <mxCell id="Z6vbrmiXovS8cvgwPFea-66" style="rounded=0;orthogonalLoop=1;jettySize=auto;html=1;exitX=1;exitY=1;exitDx=0;exitDy=0;endArrow=none;endFill=0;strokeWidth=2;entryX=0;entryY=0;entryDx=0;entryDy=0;" edge="1" parent="1" source="Z6vbrmiXovS8cvgwPFea-4" target="Z6vbrmiXovS8cvgwPFea-65">
          <mxGeometry relative="1" as="geometry">
            <mxPoint x="672.6776695296637" y="732.6776695296637" as="sourcePoint" />
            <mxPoint x="687.3223304703363" y="747.3223304703363" as="targetPoint" />
          </mxGeometry>
        </mxCell>
        <mxCell id="Z6vbrmiXovS8cvgwPFea-67" value="&lt;font style=&quot;font-size: 28px&quot;&gt;5&lt;/font&gt;" style="ellipse;whiteSpace=wrap;html=1;aspect=fixed;fillColor=#e3c800;fontColor=#000000;strokeColor=#E3C800;" vertex="1" parent="1">
          <mxGeometry x="370" y="530" width="50" height="50" as="geometry" />
        </mxCell>
        <mxCell id="Z6vbrmiXovS8cvgwPFea-68" style="rounded=0;orthogonalLoop=1;jettySize=auto;html=1;endArrow=none;endFill=0;strokeWidth=2;entryX=1;entryY=0;entryDx=0;entryDy=0;exitX=0;exitY=1;exitDx=0;exitDy=0;" edge="1" parent="1" source="Z6vbrmiXovS8cvgwPFea-67" target="Z6vbrmiXovS8cvgwPFea-5">
          <mxGeometry relative="1" as="geometry">
            <mxPoint x="310" y="600" as="sourcePoint" />
            <mxPoint x="292.6776695296637" y="617.3223304703363" as="targetPoint" />
          </mxGeometry>
        </mxCell>
      </root>
    </mxGraphModel>
  </diagram>
</mxfile>
